<svg width="41" height="41" viewBox="0 0 41 41" fill="none" xmlns="http://www.w3.org/2000/svg">
<rect width="41" height="41" fill="#C5CAEA"/>
<path d="M21 17C21.5523 17 22 16.5523 22 16C22 15.4477 21.5523 15 21 15C20.4477 15 20 15.4477 20 16C20 16.5523 20.4477 17 21 17Z" fill="#34126C"/>
<path d="M21 7C18.0837 7.00344 15.2878 8.16347 13.2256 10.2256C11.1635 12.2878 10.0035 15.0837 10 18C9.99652 20.3832 10.775 22.7018 12.216 24.6C12.216 24.6 12.516 24.995 12.565 25.052L21 35L29.439 25.047C29.483 24.994 29.784 24.6 29.784 24.6L29.785 24.597C31.2253 22.6996 32.0034 20.3821 32 18C31.9966 15.0837 30.8365 12.2878 28.7744 10.2256C26.7122 8.16347 23.9163 7.00344 21 7ZM21 13C21.5934 13 22.1734 13.1759 22.6667 13.5056C23.1601 13.8352 23.5446 14.3038 23.7717 14.8519C23.9987 15.4001 24.0581 16.0033 23.9424 16.5853C23.8266 17.1672 23.5409 17.7018 23.1213 18.1213C22.7018 18.5409 22.1672 18.8266 21.5853 18.9424C21.0033 19.0581 20.4001 18.9987 19.852 18.7716C19.3038 18.5446 18.8352 18.1601 18.5056 17.6667C18.176 17.1734 18 16.5933 18 16C18.0008 15.2046 18.3171 14.442 18.8796 13.8796C19.442 13.3171 20.2046 13.0008 21 13ZM25 24H23V22H19V24H17V22C17.0005 21.4697 17.2114 20.9613 17.5864 20.5864C17.9613 20.2114 18.4697 20.0005 19 20H23C23.5303 20.0005 24.0387 20.2114 24.4136 20.5864C24.7886 20.9613 24.9995 21.4697 25 22V24Z" fill="#34126C"/>
</svg>
