<svg width="34" height="34" viewBox="0 0 34 34" fill="none" xmlns="http://www.w3.org/2000/svg">
<rect width="34" height="34" rx="4" fill="white"/>
<path d="M11.4454 17.5551L18.6044 23.8195C19.4495 24.5587 20.7713 23.9579 20.7713 22.8359V10.3072C20.7716 10.0561 20.6994 9.8103 20.5635 9.59916C20.4276 9.38802 20.2337 9.22053 20.005 9.11675C19.7764 9.01297 19.5227 8.97729 19.2743 9.014C19.0258 9.0507 18.7933 9.15823 18.6044 9.32371L11.4467 15.588C11.3064 15.7106 11.1939 15.8618 11.1169 16.0315C11.0399 16.2011 11 16.3853 11 16.5716C11 16.7579 11.0399 16.942 11.1169 17.1117C11.1939 17.2813 11.3064 17.4325 11.4467 17.5551H11.4454Z" fill="#34126C"/>
</svg>
