<svg width="17" height="25" viewBox="0 0 17 25" fill="none" xmlns="http://www.w3.org/2000/svg">
<path d="M0.731638 14.1219L12.4943 24.4624C13.8805 25.6827 16.0519 24.6909 16.0519 22.8389V2.15791C16.0523 1.74342 15.9337 1.33761 15.7104 0.989085C15.4872 0.640557 15.1687 0.364083 14.793 0.192771C14.4174 0.0214589 14.0006 -0.0374284 13.5926 0.0231609C13.1845 0.0837502 12.8025 0.261247 12.4922 0.534397L0.733784 10.8749C0.503316 11.0772 0.318601 11.3268 0.19204 11.6068C0.0654785 11.8869 0 12.1908 0 12.4984C0 12.8059 0.0654785 13.1099 0.19204 13.3899C0.318601 13.67 0.503316 13.9195 0.733784 14.1219H0.731638Z" fill="#B1B1B1"/>
</svg>
