<svg width="13" height="20" viewBox="0 0 13 20" fill="none" xmlns="http://www.w3.org/2000/svg">
<path d="M12.3154 11.2975L2.8598 19.5699C1.74555 20.5462 6.34237e-07 19.7527 6.34237e-07 18.2711V1.72633C-0.000283668 1.39474 0.0950183 1.07009 0.274494 0.791268C0.45397 0.512446 0.710012 0.291266 1.01196 0.154217C1.3139 0.0171671 1.64895 -0.0299427 1.97698 0.0185288C2.30502 0.0670002 2.61212 0.208998 2.86153 0.427518L12.3137 8.6999C12.499 8.8618 12.6475 9.06146 12.7492 9.28547C12.8509 9.50949 12.9036 9.75268 12.9036 9.99871C12.9036 10.2447 12.8509 10.4879 12.7492 10.712C12.6475 10.936 12.499 11.1356 12.3137 11.2975H12.3154Z" fill="#C5CAEA"/>
</svg>
