<svg width="34" height="34" viewBox="0 0 34 34" fill="none" xmlns="http://www.w3.org/2000/svg">
<rect width="34" height="34" rx="4" fill="white"/>
<path d="M17.4167 27.8342C16.0484 27.8356 14.6932 27.5671 13.4288 27.0441C12.1643 26.5211 11.0155 25.7539 10.0479 24.7863C9.08037 23.8188 8.31314 22.6699 7.79014 21.4055C7.26713 20.1411 6.99863 18.7859 7.00001 17.4176V17.2093C7.04168 15.167 7.6826 13.182 8.84312 11.5009C10.0036 9.81991 11.6326 8.51699 13.5275 7.7541C15.4224 6.99122 17.4997 6.802 19.5012 7.20998C21.5028 7.61796 23.3403 8.60514 24.7854 10.0488C26.2435 11.5057 27.2365 13.3623 27.639 15.3837C28.0414 17.4052 27.8351 19.5005 27.0462 21.4047C26.2573 23.3088 24.9212 24.9362 23.2071 26.0807C21.4929 27.2252 19.4778 27.8355 17.4167 27.8342ZM17.4167 18.8863L20.1146 21.5843L21.5833 20.1155L18.8854 17.4176L21.5833 14.7197L20.1146 13.2509L17.4167 15.9488L14.7188 13.2509L13.25 14.7197L15.9479 17.4176L13.25 20.1155L14.7188 21.5843L17.4167 18.8874V18.8863Z" fill="#34126C"/>
</svg>
