<svg width="41" height="41" viewBox="0 0 41 41" fill="none" xmlns="http://www.w3.org/2000/svg">
<rect width="41" height="41" fill="#C5CAEA"/>
<path d="M10.2778 21.7778H17.9444C18.2833 21.7778 18.6083 21.6432 18.848 21.4035C19.0876 21.1639 19.2222 20.8389 19.2222 20.5V10.2778C19.2222 9.93889 19.0876 9.61388 18.848 9.37425C18.6083 9.13462 18.2833 9 17.9444 9H10.2778C9.93889 9 9.61388 9.13462 9.37425 9.37425C9.13462 9.61388 9 9.93889 9 10.2778V20.5C9 20.8389 9.13462 21.1639 9.37425 21.4035C9.61388 21.6432 9.93889 21.7778 10.2778 21.7778ZM9 30.7222C9 31.0611 9.13462 31.3861 9.37425 31.6257C9.61388 31.8654 9.93889 32 10.2778 32H17.9444C18.2833 32 18.6083 31.8654 18.848 31.6257C19.0876 31.3861 19.2222 31.0611 19.2222 30.7222V25.6111C19.2222 25.2722 19.0876 24.9472 18.848 24.7076C18.6083 24.468 18.2833 24.3333 17.9444 24.3333H10.2778C9.93889 24.3333 9.61388 24.468 9.37425 24.7076C9.13462 24.9472 9 25.2722 9 25.6111V30.7222ZM21.7778 30.7222C21.7778 31.0611 21.9124 31.3861 22.152 31.6257C22.3917 31.8654 22.7167 32 23.0556 32H30.7222C31.0611 32 31.3861 31.8654 31.6257 31.6257C31.8654 31.3861 32 31.0611 32 30.7222V21.7778C32 21.4389 31.8654 21.1139 31.6257 20.8743C31.3861 20.6346 31.0611 20.5 30.7222 20.5H23.0556C22.7167 20.5 22.3917 20.6346 22.152 20.8743C21.9124 21.1139 21.7778 21.4389 21.7778 21.7778V30.7222ZM23.0556 17.9444H30.7222C31.0611 17.9444 31.3861 17.8098 31.6257 17.5702C31.8654 17.3306 32 17.0056 32 16.6667V10.2778C32 9.93889 31.8654 9.61388 31.6257 9.37425C31.3861 9.13462 31.0611 9 30.7222 9H23.0556C22.7167 9 22.3917 9.13462 22.152 9.37425C21.9124 9.61388 21.7778 9.93889 21.7778 10.2778V16.6667C21.7778 17.0056 21.9124 17.3306 22.152 17.5702C22.3917 17.8098 22.7167 17.9444 23.0556 17.9444Z" fill="#34126C"/>
</svg>
