<svg width="14" height="9" viewBox="0 0 14 9" fill="none" xmlns="http://www.w3.org/2000/svg">
<path d="M9.09817 4.49905C9.09817 5.69242 8.15709 6.65983 6.9962 6.65983C5.83532 6.65983 4.89424 5.69242 4.89424 4.49905C4.89424 3.30568 5.83532 2.33828 6.9962 2.33828C8.15709 2.33827 9.09817 3.30569 9.09817 4.49905ZM7 0C5.79804 0.00572077 4.55217 0.319687 3.37279 0.920794C2.49711 1.38549 1.64372 2.04111 0.90293 2.85035C0.539093 3.26343 0.0750283 3.86157 0 4.49976C0.00886667 5.05257 0.561517 5.7349 0.90293 6.14918C1.5976 6.92663 2.42877 7.56395 3.37279 8.07921C4.47262 8.65192 5.68997 8.98166 7 9C8.2031 8.99419 9.44869 8.67661 10.6268 8.07921C11.5024 7.61451 12.3563 6.95841 13.0971 6.14918C13.4609 5.73609 13.925 5.13794 14 4.49976C13.9911 3.94694 13.4385 3.26458 13.0971 2.85032C12.4024 2.07287 11.5708 1.43604 10.6268 0.920769C9.52751 0.348491 8.30716 0.0210179 7 0ZM6.99911 1.11722C8.8205 1.11722 10.297 2.63183 10.297 4.50024C10.297 6.36865 8.8205 7.88326 6.99911 7.88326C5.17773 7.88326 3.70124 6.36863 3.70124 4.50024C3.70124 2.63183 5.17773 1.11722 6.99911 1.11722Z" fill="white"/>
</svg>
