<svg width="16" height="18" viewBox="0 0 16 18" fill="none" xmlns="http://www.w3.org/2000/svg">
<path d="M4.98142 1.99501C4.71719 1.99501 4.46378 2.09997 4.27694 2.28681C4.0901 2.47365 3.98514 2.72706 3.98514 2.99129C3.98514 3.25552 4.0901 3.50893 4.27694 3.69577C4.46378 3.88261 4.71719 3.98758 4.98142 3.98758C5.24565 3.98758 5.49906 3.88261 5.6859 3.69577C5.87274 3.50893 5.9777 3.25552 5.9777 2.99129C5.9777 2.72706 5.87274 2.47365 5.6859 2.28681C5.49906 2.09997 5.24565 1.99501 4.98142 1.99501ZM2.16194 1.99501C2.36777 1.41165 2.74948 0.906503 3.25446 0.549191C3.75944 0.19188 4.36281 0 4.98142 0C5.60003 0 6.2034 0.19188 6.70838 0.549191C7.21336 0.906503 7.59507 1.41165 7.8009 1.99501H14.9443C15.2085 1.99501 15.4619 2.09997 15.6487 2.28681C15.8356 2.47365 15.9405 2.72706 15.9405 2.99129C15.9405 3.25552 15.8356 3.50893 15.6487 3.69577C15.4619 3.88261 15.2085 3.98758 14.9443 3.98758H7.8009C7.59507 4.57093 7.21336 5.07608 6.70838 5.43339C6.2034 5.79071 5.60003 5.98259 4.98142 5.98259C4.36281 5.98259 3.75944 5.79071 3.25446 5.43339C2.74948 5.07608 2.36777 4.57093 2.16194 3.98758H0.996284C0.732053 3.98758 0.478644 3.88261 0.291805 3.69577C0.104966 3.50893 0 3.25552 0 2.99129C0 2.72706 0.104966 2.47365 0.291805 2.28681C0.478644 2.09997 0.732053 1.99501 0.996284 1.99501H2.16194ZM10.9591 7.97271C10.6949 7.97271 10.4415 8.07768 10.2546 8.26452C10.0678 8.45136 9.96284 8.70477 9.96284 8.969C9.96284 9.23323 10.0678 9.48664 10.2546 9.67347C10.4415 9.86031 10.6949 9.96528 10.9591 9.96528C11.2234 9.96528 11.4768 9.86031 11.6636 9.67347C11.8504 9.48664 11.9554 9.23323 11.9554 8.969C11.9554 8.70477 11.8504 8.45136 11.6636 8.26452C11.4768 8.07768 11.2234 7.97271 10.9591 7.97271ZM8.13964 7.97271C8.34547 7.38936 8.72719 6.88421 9.23216 6.52689C9.73714 6.16958 10.3405 5.9777 10.9591 5.9777C11.5777 5.9777 12.1811 6.16958 12.6861 6.52689C13.1911 6.88421 13.5728 7.38936 13.7786 7.97271H14.9443C15.2085 7.97271 15.4619 8.07768 15.6487 8.26452C15.8356 8.45136 15.9405 8.70477 15.9405 8.969C15.9405 9.23323 15.8356 9.48664 15.6487 9.67347C15.4619 9.86031 15.2085 9.96528 14.9443 9.96528H13.7786C13.5728 10.5486 13.1911 11.0538 12.6861 11.4111C12.1811 11.7684 11.5777 11.9603 10.9591 11.9603C10.3405 11.9603 9.73714 11.7684 9.23216 11.4111C8.72719 11.0538 8.34547 10.5486 8.13964 9.96528H0.996284C0.732053 9.96528 0.478644 9.86031 0.291805 9.67347C0.104966 9.48664 0 9.23323 0 8.969C0 8.70477 0.104966 8.45136 0.291805 8.26452C0.478644 8.07768 0.732053 7.97271 0.996284 7.97271H8.13964ZM4.98142 13.9504C4.71719 13.9504 4.46378 14.0554 4.27694 14.2422C4.0901 14.4291 3.98514 14.6825 3.98514 14.9467C3.98514 15.2109 4.0901 15.4643 4.27694 15.6512C4.46378 15.838 4.71719 15.943 4.98142 15.943C5.24565 15.943 5.49906 15.838 5.6859 15.6512C5.87274 15.4643 5.9777 15.2109 5.9777 14.9467C5.9777 14.6825 5.87274 14.4291 5.6859 14.2422C5.49906 14.0554 5.24565 13.9504 4.98142 13.9504ZM2.16194 13.9504C2.36777 13.3671 2.74948 12.8619 3.25446 12.5046C3.75944 12.1473 4.36281 11.9554 4.98142 11.9554C5.60003 11.9554 6.2034 12.1473 6.70838 12.5046C7.21336 12.8619 7.59507 13.3671 7.8009 13.9504H14.9443C15.2085 13.9504 15.4619 14.0554 15.6487 14.2422C15.8356 14.4291 15.9405 14.6825 15.9405 14.9467C15.9405 15.2109 15.8356 15.4643 15.6487 15.6512C15.4619 15.838 15.2085 15.943 14.9443 15.943H7.8009C7.59507 16.5263 7.21336 17.0315 6.70838 17.3888C6.2034 17.7461 5.60003 17.938 4.98142 17.938C4.36281 17.938 3.75944 17.7461 3.25446 17.3888C2.74948 17.0315 2.36777 16.5263 2.16194 15.943H0.996284C0.732053 15.943 0.478644 15.838 0.291805 15.6512C0.104966 15.4643 0 15.2109 0 14.9467C0 14.6825 0.104966 14.4291 0.291805 14.2422C0.478644 14.0554 0.732053 13.9504 0.996284 13.9504H2.16194Z" fill="#34126C"/>
</svg>
