<svg width="19" height="22" viewBox="0 0 19 22" fill="none" xmlns="http://www.w3.org/2000/svg">
<path d="M5.9375 2.37791C5.62256 2.37791 5.32051 2.50302 5.09781 2.72572C4.87511 2.94842 4.75 3.25047 4.75 3.56541C4.75 3.88035 4.87511 4.1824 5.09781 4.4051C5.32051 4.6278 5.62256 4.75291 5.9375 4.75291C6.25244 4.75291 6.55449 4.6278 6.77719 4.4051C6.99989 4.1824 7.125 3.88035 7.125 3.56541C7.125 3.25047 6.99989 2.94842 6.77719 2.72572C6.55449 2.50302 6.25244 2.37791 5.9375 2.37791ZM2.57688 2.37791C2.82221 1.68259 3.27719 1.08049 3.87909 0.654597C4.48098 0.228707 5.20017 0 5.9375 0C6.67483 0 7.39402 0.228707 7.99591 0.654597C8.59781 1.08049 9.05278 1.68259 9.29813 2.37791H17.8125C18.1274 2.37791 18.4295 2.50302 18.6522 2.72572C18.8749 2.94842 19 3.25047 19 3.56541C19 3.88035 18.8749 4.1824 18.6522 4.4051C18.4295 4.6278 18.1274 4.75291 17.8125 4.75291H9.29813C9.05278 5.44823 8.59781 6.05033 7.99591 6.47622C7.39402 6.90211 6.67483 7.13082 5.9375 7.13082C5.20017 7.13082 4.48098 6.90211 3.87909 6.47622C3.27719 6.05033 2.82221 5.44823 2.57688 4.75291H1.1875C0.872555 4.75291 0.57051 4.6278 0.347811 4.4051C0.125111 4.1824 0 3.88035 0 3.56541C0 3.25047 0.125111 2.94842 0.347811 2.72572C0.57051 2.50302 0.872555 2.37791 1.1875 2.37791H2.57688ZM13.0625 9.50291C12.7476 9.50291 12.4455 9.62802 12.2228 9.85072C12.0001 10.0734 11.875 10.3755 11.875 10.6904C11.875 11.0054 12.0001 11.3074 12.2228 11.5301C12.4455 11.7528 12.7476 11.8779 13.0625 11.8779C13.3774 11.8779 13.6795 11.7528 13.9022 11.5301C14.1249 11.3074 14.25 11.0054 14.25 10.6904C14.25 10.3755 14.1249 10.0734 13.9022 9.85072C13.6795 9.62802 13.3774 9.50291 13.0625 9.50291ZM9.70187 9.50291C9.94722 8.80759 10.4022 8.20549 11.0041 7.7796C11.606 7.35371 12.3252 7.125 13.0625 7.125C13.7998 7.125 14.519 7.35371 15.1209 7.7796C15.7228 8.20549 16.1778 8.80759 16.4231 9.50291H17.8125C18.1274 9.50291 18.4295 9.62802 18.6522 9.85072C18.8749 10.0734 19 10.3755 19 10.6904C19 11.0054 18.8749 11.3074 18.6522 11.5301C18.4295 11.7528 18.1274 11.8779 17.8125 11.8779H16.4231C16.1778 12.5732 15.7228 13.1753 15.1209 13.6012C14.519 14.0271 13.7998 14.2558 13.0625 14.2558C12.3252 14.2558 11.606 14.0271 11.0041 13.6012C10.4022 13.1753 9.94722 12.5732 9.70187 11.8779H1.1875C0.872555 11.8779 0.57051 11.7528 0.347811 11.5301C0.125111 11.3074 0 11.0054 0 10.6904C0 10.3755 0.125111 10.0734 0.347811 9.85072C0.57051 9.62802 0.872555 9.50291 1.1875 9.50291H9.70187ZM5.9375 16.6279C5.62256 16.6279 5.32051 16.753 5.09781 16.9757C4.87511 17.1984 4.75 17.5005 4.75 17.8154C4.75 18.1304 4.87511 18.4324 5.09781 18.6551C5.32051 18.8778 5.62256 19.0029 5.9375 19.0029C6.25244 19.0029 6.55449 18.8778 6.77719 18.6551C6.99989 18.4324 7.125 18.1304 7.125 17.8154C7.125 17.5005 6.99989 17.1984 6.77719 16.9757C6.55449 16.753 6.25244 16.6279 5.9375 16.6279ZM2.57688 16.6279C2.82221 15.9326 3.27719 15.3305 3.87909 14.9046C4.48098 14.4787 5.20017 14.25 5.9375 14.25C6.67483 14.25 7.39402 14.4787 7.99591 14.9046C8.59781 15.3305 9.05278 15.9326 9.29813 16.6279H17.8125C18.1274 16.6279 18.4295 16.753 18.6522 16.9757C18.8749 17.1984 19 17.5005 19 17.8154C19 18.1304 18.8749 18.4324 18.6522 18.6551C18.4295 18.8778 18.1274 19.0029 17.8125 19.0029H9.29813C9.05278 19.6982 8.59781 20.3003 7.99591 20.7262C7.39402 21.1521 6.67483 21.3808 5.9375 21.3808C5.20017 21.3808 4.48098 21.1521 3.87909 20.7262C3.27719 20.3003 2.82221 19.6982 2.57688 19.0029H1.1875C0.872555 19.0029 0.57051 18.8778 0.347811 18.6551C0.125111 18.4324 0 18.1304 0 17.8154C0 17.5005 0.125111 17.1984 0.347811 16.9757C0.57051 16.753 0.872555 16.6279 1.1875 16.6279H2.57688Z" fill="#34126C"/>
</svg>
