<svg width="31" height="29" viewBox="0 0 31 29" fill="none" xmlns="http://www.w3.org/2000/svg">
<path d="M24.1945 8.81611C23.6642 10.407 22.6699 11.335 21.0127 11.2687C20.3553 11.2092 19.7349 10.9379 19.2448 10.4956C18.7547 10.0534 18.4214 9.46401 18.295 8.81611C17.831 10.407 16.903 11.2687 15.2458 11.2687C13.5886 11.2687 12.992 10.407 12.4618 8.81611C11.9315 10.407 11.0034 11.335 9.28 11.2687C7.55655 11.2024 7.02625 10.2081 6.62853 8.81611L6.36339 9.3464C6.15014 9.99024 5.70919 10.5341 5.12334 10.8758C4.5375 11.2176 3.84705 11.3337 3.18164 11.2024C2.52542 11.1078 1.92452 10.782 1.48706 10.2838C1.04961 9.7856 0.804315 9.14763 0.79532 8.48468C0.729034 6.16465 0.729034 3.77833 0.79532 1.4583C0.786343 1.27 0.815708 1.08184 0.881633 0.905224C0.947558 0.72861 1.04867 0.567228 1.17884 0.430863C1.309 0.294499 1.46551 0.185994 1.63887 0.111931C1.81223 0.037867 1.99882 -0.000212969 2.18734 8.9585e-07H28.1717C29.5637 8.9585e-07 30.0277 0.464007 30.0277 1.78974V8.08696C30.0277 9.81041 29.0334 11.0036 27.5751 11.2024C26.8372 11.3386 26.0754 11.1784 25.4549 10.7565C24.8344 10.3345 24.4053 9.68497 24.2608 8.94868C24.2224 8.91469 24.1987 8.86719 24.1945 8.81611Z" fill="#34126C"/>
<path d="M11.335 25.3214V14.8482H5.56809V25.3214H2.98291V11.9979C3.64998 12.1219 4.33844 12.0573 4.97081 11.8114C5.60318 11.5655 6.15438 11.148 6.56238 10.6058C6.92587 11.0321 7.3714 11.3809 7.87247 11.6314C8.37353 11.882 8.91988 12.0291 9.47899 12.0641C10.0536 12.0594 10.6198 11.926 11.136 11.6736C11.6522 11.4212 12.1053 11.0564 12.4619 10.6058C12.8145 11.0444 13.2576 11.4018 13.761 11.6535C14.2643 11.9051 14.816 12.0452 15.3785 12.0641C15.9436 12.0591 16.5001 11.9251 17.0055 11.6724C17.5109 11.4197 17.952 11.0549 18.2951 10.6058C18.6511 11.0416 19.0983 11.3939 19.6053 11.6379C20.1123 11.8819 20.6667 12.0116 21.2294 12.018C21.792 12.0243 22.3491 11.907 22.8615 11.6745C23.3739 11.4419 23.8289 11.0998 24.1946 10.6721C24.6302 11.1965 25.1974 11.5956 25.838 11.8285C26.4786 12.0615 27.1697 12.1199 27.8404 11.9979V25.3214H11.335ZM14.1853 14.8482V23.0677H25.454V14.8482H14.1853Z" fill="#34126C"/>
<path d="M0 28.9009V26.0506H30.757V28.9009H0Z" fill="#34126C"/>
</svg>
