<svg width="41" height="41" viewBox="0 0 41 41" fill="none" xmlns="http://www.w3.org/2000/svg">
<rect width="41" height="41" fill="#C5CAEA"/>
<path d="M26.0625 9H15.125C14.2965 9.0009 13.5021 9.33044 12.9163 9.91629C12.3304 10.5021 12.0009 11.2965 12 12.125V29.3125C12.0009 30.141 12.3304 30.9354 12.9163 31.5212C13.5021 32.1071 14.2965 32.4366 15.125 32.4375H26.0625C26.891 32.4366 27.6854 32.1071 28.2712 31.5212C28.8571 30.9354 29.1866 30.141 29.1875 29.3125V12.125C29.1866 11.2965 28.8571 10.5021 28.2712 9.91629C27.6854 9.33044 26.891 9.0009 26.0625 9ZM24.377 22.1108C24.7466 22.5098 24.9272 23.0464 24.8843 23.6216C24.7998 24.7671 23.9263 25.6992 22.9375 25.6992C21.9487 25.6992 21.0737 24.7671 20.9902 23.6216C20.9482 23.0405 21.1274 22.5029 21.4951 22.1079C21.8628 21.7129 22.3711 21.5 22.9375 21.5C23.2067 21.4961 23.4738 21.5485 23.7216 21.6536C23.9695 21.7588 24.1927 21.9145 24.377 22.1108ZM17.4688 12.125C17.4688 11.9178 17.5511 11.7191 17.6976 11.5726C17.8441 11.4261 18.0428 11.3438 18.25 11.3438H22.9375C23.1447 11.3438 23.3434 11.4261 23.4899 11.5726C23.6364 11.7191 23.7188 11.9178 23.7188 12.125C23.7188 12.3322 23.6364 12.5309 23.4899 12.6774C23.3434 12.8239 23.1447 12.9062 22.9375 12.9062H18.25C18.0428 12.9062 17.8441 12.8239 17.6976 12.6774C17.5511 12.5309 17.4688 12.3322 17.4688 12.125ZM26.6973 29.8901C26.641 29.9553 26.5711 30.0072 26.4926 30.0424C26.414 30.0776 26.3287 30.0951 26.2427 30.0938H19.6323C19.5463 30.0951 19.461 30.0776 19.3824 30.0424C19.3039 30.0072 19.234 29.9553 19.1777 29.8901C19.1167 29.8171 19.0729 29.7312 19.0496 29.6389C19.0263 29.5466 19.024 29.4502 19.043 29.3569C19.2017 28.4995 19.6963 27.7793 20.4736 27.2739C21.1641 26.8252 22.0391 26.5781 22.9375 26.5781C23.8359 26.5781 24.7109 26.8252 25.4014 27.2739C26.1787 27.7793 26.6733 28.4995 26.832 29.3569C26.851 29.4502 26.8487 29.5466 26.8254 29.6389C26.8021 29.7312 26.7583 29.8171 26.6973 29.8901Z" fill="#34126C"/>
</svg>
