<svg width="41" height="41" viewBox="0 0 41 41" fill="none" xmlns="http://www.w3.org/2000/svg">
<rect width="41" height="41" fill="#C5CAEA"/>
<path d="M29.6774 10H17.2903V13.7801H20.3871V15.2921H10.3226C9.00645 15.2921 8 16.2749 8 17.5601V25.8763C8 27.1615 9.00645 28.1443 10.3226 28.1443H11.0968V32L15.9742 28.1443H21.1613V22.8522H29.6774C30.9935 22.8522 32 21.8694 32 20.5842V12.268C32 10.9828 30.9935 10 29.6774 10ZM16.3613 25.0447L15.9742 23.8351H13.5742L13.1097 25.0447H11.2516L13.8065 18.3162H15.6645L18.2194 25.0447H16.3613ZM28.129 19.0722V20.5842C27.1226 20.5842 26.0387 20.2818 25.1097 19.8282C24.1806 20.2818 23.0968 20.5086 22.0129 20.5842L21.9355 19.0722C22.4774 19.0722 23.0194 18.9966 23.5613 18.8454C22.8645 18.1649 22.4 17.3333 22.1677 16.4261H23.7935C24.0258 17.1065 24.4903 17.6357 25.0323 18.0893C25.8839 17.4089 26.4258 16.4261 26.5032 15.2921H21.8581V13.7801H24.1806V12.268H25.729V13.7801H28.2839L28.3613 14.5361C28.4387 16.1237 27.8194 17.7113 26.6581 18.8454C27.2 18.9966 27.6645 19.0722 28.129 19.0722Z" fill="#34126C"/>
</svg>
