<svg width="11" height="18" viewBox="0 0 11 18" fill="none" xmlns="http://www.w3.org/2000/svg">
<path d="M0.501374 10.1678L8.56208 17.6129C9.51196 18.4916 11 17.7775 11 16.444V1.5537C11.0002 1.25526 10.919 0.963082 10.766 0.712141C10.613 0.461201 10.3947 0.262139 10.1373 0.138795C9.87993 0.0154504 9.5943 -0.0269484 9.31466 0.0166759C9.03503 0.0603002 8.77322 0.188098 8.56061 0.384766L0.502845 7.82991C0.344911 7.97562 0.21833 8.15531 0.1316 8.35693C0.0448708 8.55854 0 8.77741 0 8.99884C0 9.22027 0.0448708 9.43915 0.1316 9.64076C0.21833 9.84237 0.344911 10.0221 0.502845 10.1678H0.501374Z" fill="#34126C"/>
</svg>
