<svg width="41" height="22" viewBox="0 0 41 22" fill="none" xmlns="http://www.w3.org/2000/svg">
<path d="M40.4348 21.0261L37.9655 19.7023L31.6379 16.3539C31.414 16.274 31.2198 16.1265 31.0818 15.9315C30.9438 15.7365 30.8685 15.5033 30.8662 15.2637C30.8556 15.0415 30.908 14.8209 31.0174 14.6277C31.1268 14.4346 31.2885 14.277 31.4836 14.1735C31.6684 14.0559 31.8824 13.9935 32.1009 13.9935C32.3194 13.9935 32.5334 14.0559 32.7182 14.1735L37.5797 16.7432C38.0426 16.9768 38.0426 16.9768 38.0426 16.5096V9.89059C38.0426 9.57911 37.9655 9.57911 37.734 9.73485L32.7182 12.3825C32.5629 12.4884 32.3843 12.5546 32.198 12.5755C32.0116 12.5964 31.8231 12.5713 31.6485 12.5023C31.4739 12.4334 31.3185 12.3227 31.1957 12.1797C31.0728 12.0367 30.9863 11.8658 30.9434 11.6816C30.8814 11.5342 30.855 11.3741 30.8662 11.2144V6.07493C30.8901 5.82351 30.8587 5.56987 30.774 5.33216C30.6894 5.09446 30.5538 4.87858 30.3768 4.69998C30.1998 4.52138 29.9859 4.38449 29.7503 4.29909C29.5148 4.2137 29.2634 4.18192 29.0143 4.20604H15.819C15.5103 4.20604 15.4331 4.12817 15.5103 3.81668C15.664 3.22976 15.664 2.61259 15.5103 2.02566C15.4331 1.79205 15.4331 1.71418 15.6646 1.71418H29.3229C30.3806 1.75449 31.3817 2.20704 32.1156 2.9767C32.8495 3.74637 33.2591 4.77319 33.2584 5.84132V8.95614C33.2584 9.26763 33.3355 9.26763 33.567 9.11189L40.1261 5.68558C40.1621 5.63722 40.2087 5.59797 40.2622 5.57094C40.3158 5.54391 40.3749 5.52984 40.4348 5.52984V21.0261ZM0 11.3701C0.00789937 11.5488 0.0538189 11.7236 0.134639 11.8828C0.215458 12.042 0.329284 12.1817 0.468379 12.2925C0.607474 12.4033 0.768579 12.4826 0.940746 12.525C1.11291 12.5674 1.29211 12.5719 1.46615 12.5382C1.76634 12.4639 2.02801 12.2787 2.19946 12.0192C2.37091 11.7597 2.43966 11.4447 2.39213 11.1365C2.39213 9.42337 2.4693 7.71022 2.39213 5.99706C2.38114 5.75892 2.41952 5.52108 2.50482 5.29876C2.59013 5.07644 2.72047 4.87453 2.88752 4.70595C3.05457 4.53737 3.25465 4.40584 3.47496 4.31976C3.69527 4.23367 3.93095 4.19494 4.16694 4.20604H7.1764C7.33073 4.20604 7.48506 4.20604 7.4079 3.97243C7.25334 3.30656 7.25334 2.61366 7.4079 1.94779C7.48506 1.79205 7.4079 1.71418 7.25357 1.71418C7.09924 1.71418 4.78427 1.63631 3.54962 1.79205C2.58071 1.90555 1.68595 2.37131 1.03265 3.10224C0.379351 3.83316 0.012252 4.7792 0 5.76345V11.3701ZM11.4205 0.00102487C10.6428 0.00102487 9.89698 0.312785 9.34707 0.867721C8.79715 1.42266 8.48822 2.17531 8.48822 2.96011C8.50778 3.75934 8.83113 4.52038 9.39133 5.0857C9.95152 5.65102 10.7057 5.97732 11.4977 5.99706C12.2761 5.95796 13.011 5.62313 13.5549 5.05982C14.0989 4.4965 14.4115 3.74639 14.43 2.96011C14.4301 2.56487 14.3518 2.17362 14.1996 1.80944C14.0475 1.44525 13.8245 1.11552 13.544 0.8397C13.2635 0.563881 12.9311 0.347565 12.5664 0.203521C12.2016 0.0594772 11.812 -0.00937601 11.4205 0.00102487Z" fill="#B1B1B1"/>
<path d="M23.3822 13.3153V8.38295C23.3822 8.11871 23.4637 8.11871 23.7084 8.11871H28.7656C29.0103 8.11871 29.0919 8.11871 29.0919 8.38295V9.70412C29.0919 9.96835 29.0919 9.96835 28.8472 9.96835C28.6025 9.96835 26.808 10.0564 25.8292 9.96835C24.8504 9.88027 25.4213 10.0564 25.4213 10.4087C25.5026 10.8448 25.5026 11.2939 25.4213 11.7299C25.4213 12.0822 25.5029 12.1703 25.8292 12.1703H28.7656C29.0103 12.1703 29.1735 12.1703 29.0919 12.5226V13.7557C29.1735 14.0199 29.0103 14.108 28.7656 14.108H25.7476C25.5029 14.0199 25.4213 14.108 25.4213 14.4603C25.503 15.1032 25.503 15.7551 25.4213 16.398C25.4213 16.6623 25.5029 16.6623 25.7476 16.6623H28.7656C29.0103 16.6623 29.0919 16.7504 29.0919 17.0146V18.3358C29.0919 18.6 29.0103 18.6 28.8472 18.6H23.6269C23.3821 18.6 23.3822 18.5119 23.3822 18.3358V13.3153ZM17.6724 16.2219C17.183 13.4915 16.2042 11.0253 15.5516 8.38295C15.5178 8.29837 15.4602 8.22739 15.3871 8.17999C15.3139 8.13259 15.2288 8.11116 15.1438 8.11871H13.4309C13.1862 8.11871 13.1046 8.11871 13.1862 8.38295L16.612 18.3358C16.6936 18.6 16.7751 18.6 17.0198 18.6H18.4065C18.6512 18.6 18.7328 18.6 18.8143 18.3358L22.2402 8.38295C22.3218 8.11871 22.3218 8.11871 22.0771 8.11871H20.3641C20.1194 8.03063 20.0379 8.11871 19.9563 8.47102C19.3853 10.2326 18.8959 12.0822 18.3249 13.9319C18.0675 14.7341 17.8764 15.5594 17.754 16.398L17.6724 16.2219ZM3.23486 18.2477C3.23486 18.5119 3.23486 18.6 3.47957 18.6H8.37364C8.61835 18.6 8.61835 18.6 8.61835 18.3358V17.1027C8.61835 16.7504 8.61835 16.6623 8.29208 16.6623C7.9658 16.6623 6.57915 16.6623 5.76347 16.6623C4.94779 16.6623 5.27406 16.5742 5.27406 16.2219C5.35563 13.5795 5.35563 11.0253 5.35563 8.47102C5.35563 8.20679 5.27406 8.03063 5.02936 8.11871H3.56113C3.23486 8.03063 3.23486 8.20679 3.23486 8.47102V18.2477ZM9.92344 18.2477C9.92344 18.5119 10.005 18.6 10.2497 18.6H11.7995C12.0442 18.6 12.0442 18.5119 12.0442 18.3358V8.38295C12.0442 8.11871 12.0442 8.11871 11.7995 8.11871H10.2497C10.005 8.03063 9.92344 8.11871 9.92344 8.47102C9.92344 8.82334 9.92344 11.7299 9.92344 13.4034V18.2477Z" fill="#B1B1B1"/>
</svg>
