<svg width="14" height="13" viewBox="0 0 14 13" fill="none" xmlns="http://www.w3.org/2000/svg">
<path d="M12.3601 0.729788C10.5128 -0.596223 8.23172 0.0225821 7.00019 1.54013C5.76867 0.0225821 3.48754 -0.60359 1.64025 0.729788C0.66063 1.43699 0.0448664 2.6304 0.00288252 3.89011C-0.0950798 6.7484 2.312 9.03946 5.98558 12.5534L6.05555 12.6197C6.58735 13.128 7.40604 13.128 7.93783 12.6123L8.0148 12.5387C11.6884 9.03209 14.0885 6.74104 13.9975 3.88275C13.9555 2.6304 13.3398 1.43699 12.3601 0.729788ZM7.07017 11.4557L7.00019 11.5294L6.93022 11.4557C3.5995 8.28068 1.40234 6.18117 1.40234 4.05218C1.40234 2.57884 2.45194 1.47383 3.8514 1.47383C4.92899 1.47383 5.97858 2.20313 6.34944 3.21238H7.65794C8.0218 2.20313 9.0714 1.47383 10.149 1.47383C11.5484 1.47383 12.598 2.57884 12.598 4.05218C12.598 6.18117 10.4009 8.28068 7.07017 11.4557Z" fill="#EF5C5C"/>
</svg>
