<svg width="133" height="124" viewBox="0 0 133 124" fill="none" xmlns="http://www.w3.org/2000/svg">
<path opacity="0.5" d="M123.054 28.9157C131.204 30.5854 133.949 40.8299 127.724 46.32L43.0224 121.456C38.8624 125.163 32.495 124.767 28.7877 120.607C27.7406 119.447 27.0048 118.032 26.5803 116.532L0.346501 18.7278C-1.09678 13.3508 2.10107 7.83239 7.47802 6.3891C8.9779 5.99291 10.5627 5.93631 12.1191 6.2476L123.054 28.9157Z" fill="url(#paint0_linear)"/>
<path d="M126.99 51.6753C134.405 55.3826 134.405 65.995 126.99 69.7022L25.7338 120.33C20.753 122.821 14.6969 120.812 12.2065 115.831C11.499 114.444 11.1311 112.888 11.1311 111.331V10.0747C11.1311 4.49965 15.6308 0 21.2058 0C22.7623 0 24.3188 0.367893 25.7055 1.07539L126.99 51.6753Z" fill="url(#paint1_linear)"/>
<defs>
<linearGradient id="paint0_linear" x1="65.4254" y1="31.036" x2="61.4036" y2="114.064" gradientUnits="userSpaceOnUse">
<stop stop-color="#CF77E1"/>
<stop offset="1" stop-color="#91B5DF"/>
</linearGradient>
<linearGradient id="paint1_linear" x1="16.7421" y1="5.2948" x2="73.808" y2="88.8365" gradientUnits="userSpaceOnUse">
<stop stop-color="#C621DC"/>
<stop offset="0.452" stop-color="#9E34DB"/>
<stop offset="1" stop-color="#2173DA"/>
</linearGradient>
</defs>
</svg>
