<svg width="147" height="147" viewBox="0 0 147 147" fill="none" xmlns="http://www.w3.org/2000/svg">
<path d="M73.5 0C32.9109 0 0 32.9109 0 73.5C0 114.089 32.9109 147 73.5 147C114.089 147 147 114.089 147 73.5C147 32.9109 114.089 0 73.5 0ZM105.246 49.4977L70.6945 97.4039C70.2116 98.0779 69.575 98.6271 68.8374 99.006C68.0999 99.3849 67.2827 99.5825 66.4535 99.5825C65.6243 99.5825 64.8071 99.3849 64.0696 99.006C63.332 98.6271 62.6954 98.0779 62.2125 97.4039L41.7539 69.0539C41.1305 68.1844 41.7539 66.9703 42.8203 66.9703H50.5148C52.1883 66.9703 53.7797 67.7742 54.7641 69.1523L66.4453 85.3617L92.2359 49.5961C93.2203 48.2344 94.7953 47.4141 96.4852 47.4141H104.18C105.246 47.4141 105.87 48.6281 105.246 49.4977Z" fill="white"/>
</svg>
