<svg width="35" height="27" viewBox="0 0 35 27" fill="none" xmlns="http://www.w3.org/2000/svg">
<path d="M24.9667 20.2506V21.3639C24.9667 21.6592 24.8355 21.9424 24.6022 22.1512C24.3688 22.3599 24.0523 22.4772 23.7222 22.4772H7.93333L2.02222 26.7217C1.80079 26.8833 1.52938 26.9804 1.24444 27L0.7 26.8608C0.499765 26.7658 0.330216 26.6262 0.207633 26.4556C0.0850495 26.2851 0.0135502 26.0891 0 25.8867L0.000461888 5.37646C0.000461888 5.0812 0.131572 4.79803 0.364951 4.58924C0.598329 4.38046 0.914859 4.26317 1.24491 4.26317H7.54491L7.54445 16.9108C7.53384 17.352 7.62315 17.7905 7.80701 18.2C7.99087 18.6095 8.26548 18.9815 8.61428 19.2936C8.96309 19.6056 9.37889 19.8513 9.83664 20.0158C10.2944 20.1802 10.7846 20.2601 11.2778 20.2506H24.9667ZM35 1.11329V21.3639C35 21.5783 34.9349 21.7887 34.8116 21.9725C34.6883 22.1564 34.5114 22.3068 34.3 22.4077H33.7556C33.4782 22.4128 33.2061 22.3398 32.9778 22.1989L27.0667 17.9545H11.2778C10.9477 17.9545 10.6312 17.8372 10.3978 17.6284C10.1644 17.4196 10.0333 17.1364 10.0333 16.8412V1.11329C10.0333 0.81803 10.1644 0.534859 10.3978 0.326076C10.6312 0.117293 10.9477 0 11.2778 0H33.7556C34.0856 0 34.4021 0.117293 34.6355 0.326076C34.8689 0.534859 35 0.81803 35 1.11329ZM28.7778 12.4576C28.7579 12.1561 28.6099 11.8728 28.364 11.6658C28.1182 11.4588 27.7932 11.3438 27.4555 11.3443H17.5C17.1699 11.3443 16.8534 11.4616 16.62 11.6704C16.3867 11.8792 16.2556 12.1623 16.2556 12.4576C16.2556 12.7528 16.3867 13.036 16.62 13.2448C16.8534 13.4536 17.1699 13.5709 17.5 13.5709H27.4555C27.7932 13.5714 28.1182 13.4564 28.364 13.2494C28.6099 13.0424 28.7579 12.7591 28.7778 12.4576ZM28.7778 8.00441C28.7579 7.7029 28.6099 7.41962 28.364 7.21262C28.1182 7.00562 27.7932 6.89059 27.4555 6.89111H17.5C17.1699 6.89111 16.8534 7.00841 16.62 7.21719C16.3867 7.42597 16.2556 7.70914 16.2556 8.00441C16.2556 8.29967 16.3867 8.58284 16.62 8.79163C16.8534 9.00041 17.1699 9.1177 17.5 9.1177H27.4555C27.7932 9.11823 28.1182 9.0032 28.364 8.7962C28.6099 8.5892 28.7579 8.30591 28.7778 8.00441Z" fill="#34126C"/>
</svg>
