<svg width="41" height="41" viewBox="0 0 41 41" fill="none" xmlns="http://www.w3.org/2000/svg">
<rect width="41" height="41" fill="#C5CAEA"/>
<path d="M15.5558 16.5556C15.74 16.5556 15.9166 16.4824 16.0468 16.3522C16.1771 16.2219 16.2502 16.0453 16.2502 15.8611V11.6944C16.2502 11.5103 16.1771 11.3336 16.0468 11.2034C15.9166 11.0732 15.74 11 15.5558 11C15.3716 11 15.195 11.0732 15.0647 11.2034C14.9345 11.3336 14.8613 11.5103 14.8613 11.6944V15.8611C14.8613 16.0453 14.9345 16.2219 15.0647 16.3522C15.195 16.4824 15.3716 16.5556 15.5558 16.5556Z" fill="#34126C"/>
<path d="M26.6671 16.5556C26.8513 16.5556 27.0279 16.4824 27.1581 16.3522C27.2884 16.2219 27.3615 16.0453 27.3615 15.8611V11.6944C27.3615 11.5103 27.2884 11.3336 27.1581 11.2034C27.0279 11.0732 26.8513 11 26.6671 11C26.4829 11 26.3063 11.0732 26.1761 11.2034C26.0458 11.3336 25.9727 11.5103 25.9727 11.6944V15.8611C25.9727 16.0453 26.0458 16.2219 26.1761 16.3522C26.3063 16.4824 26.4829 16.5556 26.6671 16.5556Z" fill="#34126C"/>
<path d="M31.0071 13.7784H28.2293V15.8617C28.2293 16.2669 28.0684 16.6555 27.7819 16.942C27.4954 17.2285 27.1068 17.3895 26.7016 17.3895C26.2964 17.3895 25.9078 17.2285 25.6213 16.942C25.3348 16.6555 25.1738 16.2669 25.1738 15.8617V13.7784H17.0835V15.8617C17.0835 16.2669 16.9225 16.6555 16.636 16.942C16.3495 17.2285 15.9609 17.3895 15.5557 17.3895C15.1505 17.3895 14.7619 17.2285 14.4754 16.942C14.1889 16.6555 14.028 16.2669 14.028 15.8617V13.7784H11.2502C11.0849 13.7765 10.921 13.8078 10.768 13.8704C10.615 13.933 10.4762 14.0256 10.3596 14.1428C10.2431 14.26 10.1512 14.3994 10.0895 14.5527C10.0278 14.706 9.99738 14.8701 10.0002 15.0353V30.577C9.99742 30.7393 10.0267 30.9006 10.0863 31.0517C10.1458 31.2027 10.2346 31.3405 10.3474 31.4572C10.4603 31.5739 10.595 31.6673 10.744 31.7319C10.8929 31.7966 11.0531 31.8312 11.2155 31.834H31.0071C31.1695 31.8312 31.3297 31.7966 31.4786 31.7319C31.6275 31.6673 31.7623 31.5739 31.8751 31.4572C31.988 31.3405 32.0767 31.2027 32.1363 31.0517C32.1959 30.9006 32.2252 30.7393 32.2224 30.577V15.0353C32.2252 14.873 32.1959 14.7117 32.1363 14.5607C32.0767 14.4097 31.988 14.2719 31.8751 14.1551C31.7623 14.0384 31.6275 13.9451 31.4786 13.8804C31.3297 13.8158 31.1695 13.7811 31.0071 13.7784ZM26.6252 21.1256L19.9099 27.8409L16.2502 24.1534C16.088 23.9751 16.0002 23.7415 16.0047 23.5005C16.0092 23.2596 16.1056 23.0294 16.2742 22.8572C16.4429 22.685 16.671 22.5838 16.9118 22.5743C17.1526 22.5648 17.388 22.6478 17.5696 22.8062L19.9168 25.1534L25.278 19.7923C25.366 19.7043 25.4704 19.6345 25.5854 19.5868C25.7004 19.5392 25.8236 19.5147 25.9481 19.5147C26.0726 19.5147 26.1958 19.5392 26.3108 19.5868C26.4258 19.6345 26.5302 19.7043 26.6182 19.7923C26.7062 19.8803 26.776 19.9848 26.8237 20.0998C26.8713 20.2147 26.8958 20.338 26.8958 20.4624C26.8958 20.5869 26.8713 20.7101 26.8237 20.8251C26.776 20.9401 26.7062 21.0446 26.6182 21.1326L26.6252 21.1256Z" fill="#34126C"/>
</svg>
