<svg width="41" height="41" viewBox="0 0 41 41" fill="none" xmlns="http://www.w3.org/2000/svg">
<rect width="41" height="41" fill="#C5CAEA"/>
<path d="M28.5417 11.6944C28.5417 11.5103 28.4685 11.3336 28.3383 11.2034C28.208 11.0732 28.0314 11 27.8472 11H12.5694C12.3853 11 12.2086 11.0732 12.0784 11.2034C11.9482 11.3336 11.875 11.5103 11.875 11.6944V12.3889H28.5417V11.6944Z" fill="#34126C"/>
<path d="M29.9171 14.4728C29.9171 14.2886 29.8439 14.112 29.7137 13.9817C29.5835 13.8515 29.4068 13.7783 29.2227 13.7783H11.1671C10.9829 13.7783 10.8063 13.8515 10.6761 13.9817C10.5458 14.112 10.4727 14.2886 10.4727 14.4728V15.1672H29.9171V14.4728Z" fill="#34126C"/>
<path d="M29.9167 16.5557H10.3056C9.9593 16.5557 9.62723 16.6932 9.38239 16.9381C9.13755 17.1829 9 17.515 9 17.8612V30.5279C9 30.8741 9.13755 31.2062 9.38239 31.4511C9.62723 31.6959 9.9593 31.8334 10.3056 31.8334H29.9167C30.2629 31.8334 30.595 31.6959 30.8398 31.4511C31.0847 31.2062 31.2222 30.8741 31.2222 30.5279V17.8612C31.2222 17.515 31.0847 17.1829 30.8398 16.9381C30.595 16.6932 30.2629 16.5557 29.9167 16.5557ZM13.5556 18.9515C13.9676 18.9515 14.3704 19.0737 14.713 19.3026C15.0556 19.5315 15.3226 19.8569 15.4803 20.2376C15.638 20.6183 15.6792 21.0371 15.5989 21.4413C15.5185 21.8454 15.3201 22.2166 15.0287 22.508C14.7373 22.7993 14.3661 22.9977 13.962 23.0781C13.5579 23.1585 13.139 23.1173 12.7583 22.9596C12.3776 22.8019 12.0522 22.5349 11.8233 22.1923C11.5944 21.8497 11.4722 21.4469 11.4722 21.0348C11.4722 20.4823 11.6917 19.9524 12.0824 19.5617C12.4731 19.171 13.003 18.9515 13.5556 18.9515ZM28.4444 29.0557H11.7778L16.9583 23.8682C17.0507 23.7766 17.1755 23.7252 17.3056 23.7252C17.4356 23.7252 17.5604 23.7766 17.6528 23.8682L20.2083 26.4237L23.7292 22.8057C23.8215 22.7141 23.9463 22.6627 24.0764 22.6627C24.2065 22.6627 24.3313 22.7141 24.4236 22.8057L28.4444 26.8265V29.0557Z" fill="#34126C"/>
</svg>
