<svg width="41" height="41" viewBox="0 0 41 41" fill="none" xmlns="http://www.w3.org/2000/svg">
<rect width="41" height="41" fill="#C5CAEA"/>
<path d="M28.7 15.9H10.3V13.6H28.7V15.9ZM26.4 9H12.6V11.3H26.4V9ZM31 20.5V29.7C31 30.31 30.7577 30.895 30.3263 31.3263C29.895 31.7577 29.31 32 28.7 32H10.3C9.69056 31.9982 9.1066 31.7553 8.67567 31.3243C8.24473 30.8934 8.00182 30.3094 8 29.7V20.5C8.00182 19.8906 8.24473 19.3066 8.67567 18.8757C9.1066 18.4447 9.69056 18.2018 10.3 18.2H28.7C29.3094 18.2018 29.8934 18.4447 30.3243 18.8757C30.7553 19.3066 30.9982 19.8906 31 20.5ZM21.7161 26.2983L24.3875 24.0144L20.8696 23.72L19.5 20.5L18.1304 23.72L14.6125 24.0144L17.2839 26.2983L16.4789 29.7L19.5 27.8922L22.521 29.7L21.7161 26.2983Z" fill="#34126C"/>
</svg>
