<svg width="41" height="41" viewBox="0 0 41 41" fill="none" xmlns="http://www.w3.org/2000/svg">
<rect width="41" height="41" fill="#C5CAEA"/>
<path d="M14.8029 18.4555H13.9912C12.8834 18.4154 11.7792 18.6035 10.7471 19.008C9.71504 19.4125 8.7771 20.0247 7.99151 20.8068L7.76758 21.0681V28.7939H11.5745V24.4085L12.0877 23.83L12.321 23.5594C13.5357 22.3114 15.0481 21.393 16.7157 20.8908C15.8808 20.2555 15.2223 19.4171 14.8029 18.4555Z" fill="#34126C"/>
<path d="M32.8487 20.7795C32.0631 19.9974 31.1251 19.3851 30.0931 18.9806C29.061 18.5762 27.9568 18.3881 26.849 18.4281C26.5092 18.4291 26.1698 18.4478 25.832 18.4841C25.4047 19.3863 24.7642 20.1709 23.9658 20.7701C25.7461 21.2627 27.3588 22.2303 28.6312 23.5693L28.8644 23.8306L29.3683 24.4091V28.8039H33.0446V21.0407L32.8487 20.7795Z" fill="#34126C"/>
<path d="M13.9632 16.6362H14.2525C14.1181 15.4822 14.3205 14.314 14.8355 13.2726C15.3504 12.2311 16.1557 11.361 17.1543 10.7672C16.7923 10.2142 16.293 9.76471 15.7051 9.46271C15.1172 9.16072 14.4609 9.01657 13.8006 9.0444C13.1403 9.07223 12.4985 9.27107 11.9381 9.62146C11.3777 9.97185 10.9179 10.4618 10.6037 11.0432C10.2896 11.6247 10.1318 12.2778 10.1459 12.9386C10.16 13.5994 10.3454 14.2451 10.6841 14.8127C11.0227 15.3803 11.503 15.8502 12.0778 16.1764C12.6526 16.5025 13.3023 16.6739 13.9632 16.6735V16.6362Z" fill="#34126C"/>
<path d="M26.401 15.9366C26.4124 16.1511 26.4124 16.366 26.401 16.5804C26.5801 16.6088 26.761 16.6244 26.9422 16.6271H27.1195C27.7775 16.592 28.4152 16.3871 28.9706 16.0324C29.5259 15.6777 29.9799 15.1853 30.2885 14.603C30.597 14.0207 30.7495 13.3685 30.7311 12.7098C30.7127 12.0511 30.5241 11.4084 30.1836 10.8443C29.8431 10.2801 29.3623 9.81373 28.7881 9.49054C28.2138 9.16735 27.5657 8.99835 26.9067 9.00001C26.2478 9.00167 25.6005 9.17392 25.0279 9.5C24.4552 9.82608 23.9768 10.2949 23.6392 10.8607C24.4837 11.4121 25.1781 12.1645 25.6601 13.0504C26.1422 13.9363 26.3968 14.9281 26.401 15.9366Z" fill="#34126C"/>
<path d="M20.2802 20.117C22.5837 20.117 24.451 18.2497 24.451 15.9462C24.451 13.6427 22.5837 11.7754 20.2802 11.7754C17.9767 11.7754 16.1094 13.6427 16.1094 15.9462C16.1094 18.2497 17.9767 20.117 20.2802 20.117Z" fill="#34126C"/>
<path d="M20.5041 22.3375C19.2856 22.2883 18.0697 22.4861 16.9296 22.919C15.7895 23.352 14.7487 24.0111 13.87 24.8568L13.6367 25.118V31.0244C13.6404 31.2167 13.6819 31.4065 13.7589 31.5829C13.8359 31.7592 13.9469 31.9186 14.0855 32.0521C14.2241 32.1855 14.3877 32.2903 14.5669 32.3606C14.746 32.4308 14.9372 32.465 15.1296 32.4613H25.8506C26.043 32.465 26.2342 32.4308 26.4134 32.3606C26.5925 32.2903 26.7561 32.1855 26.8947 32.0521C27.0334 31.9186 27.1444 31.7592 27.2214 31.5829C27.2984 31.4065 27.3399 31.2167 27.3435 31.0244V25.1367L27.1196 24.8568C26.2465 24.0085 25.2094 23.3475 24.0719 22.9143C22.9343 22.4811 21.7202 22.2848 20.5041 22.3375Z" fill="#34126C"/>
</svg>
