<svg width="30" height="30" viewBox="0 0 30 30" fill="none" xmlns="http://www.w3.org/2000/svg">
<path d="M21.8404 12.4525H22.8183V5.72141C22.8016 4.70925 22.4047 3.7434 21.7114 3.02759C21.018 2.31178 20.0825 1.90201 19.1022 1.8847H16.69V1.00966C16.69 0.741882 16.5869 0.485071 16.4035 0.295723C16.2202 0.106375 15.9714 0 15.7121 0C15.4527 0 15.2039 0.106375 15.0205 0.295723C14.8372 0.485071 14.7341 0.741882 14.7341 1.00966V1.95201H8.01901V1.00966C8.01901 0.741882 7.91598 0.485071 7.73258 0.295723C7.54919 0.106375 7.30045 0 7.04108 0C6.78172 0 6.53298 0.106375 6.34958 0.295723C6.16619 0.485071 6.06316 0.741882 6.06316 1.00966V1.95201H3.71613C2.73055 1.95201 1.78534 2.35623 1.08843 3.07576C0.391519 3.79528 0 4.77116 0 5.78872V18.9816C0 19.9992 0.391519 20.9751 1.08843 21.6946C1.78534 22.4141 2.73055 22.8183 3.71613 22.8183H12.7783C12.7243 22.4848 12.7024 22.1466 12.7131 21.8087C12.7303 19.3211 13.6995 16.9414 15.4093 15.1887C17.1192 13.436 19.4309 12.4524 21.8404 12.4525ZM1.89066 7.80804V5.85603C1.90691 5.36151 2.10445 4.89182 2.44334 4.54194C2.78222 4.19206 3.23715 3.98811 3.71613 3.97133H6.06316V4.91368C6.06316 5.18146 6.16619 5.43827 6.34958 5.62762C6.53298 5.81697 6.78172 5.92334 7.04108 5.92334C7.172 5.9334 7.30348 5.91418 7.42654 5.86699C7.54961 5.81981 7.66137 5.74577 7.75419 5.64993C7.84702 5.55409 7.91873 5.43871 7.96443 5.31165C8.01013 5.18459 8.02875 5.04884 8.01901 4.91368V3.97133H14.7341V4.91368C14.7341 5.18146 14.8372 5.43827 15.0205 5.62762C15.2039 5.81697 15.4527 5.92334 15.7121 5.92334C15.843 5.9334 15.9744 5.91418 16.0975 5.86699C16.2206 5.81981 16.3323 5.74577 16.4252 5.64993C16.518 5.55409 16.5897 5.43871 16.6354 5.31165C16.6811 5.18459 16.6997 5.04884 16.69 4.91368V3.97133H19.1022C19.339 3.97116 19.5733 4.02031 19.7912 4.11582C20.0092 4.21133 20.2062 4.35125 20.3705 4.52721C20.5349 4.70316 20.6631 4.91153 20.7477 5.13986C20.8322 5.36818 20.8712 5.61176 20.8625 5.85603V7.80804H1.89066Z" fill="#B1B1B1"/>
<path d="M22.0953 14.1634C20.6893 14.15 19.3114 14.5786 18.137 15.3948C16.9626 16.211 16.045 17.3777 15.5011 18.7463C14.9571 20.1149 14.8115 21.6235 15.0827 23.0798C15.3539 24.5361 16.0296 25.8742 17.0238 26.9237C18.0181 27.9731 19.2858 28.6864 20.6654 28.9727C22.0451 29.2589 23.4742 29.1052 24.7708 28.531C26.0674 27.9568 27.1727 26.9883 27.9459 25.7486C28.7191 24.509 29.1252 23.0545 29.1125 21.5704C29.1125 20.5977 28.931 19.6345 28.5784 18.7359C28.2257 17.8372 27.7088 17.0207 27.0572 16.3329C26.4056 15.6451 25.6321 15.0995 24.7807 14.7272C23.9293 14.355 23.0169 14.1634 22.0953 14.1634ZM24.7348 22.5897H22.0953C21.9661 22.5999 21.8362 22.5805 21.7147 22.5328C21.5932 22.4852 21.4828 22.4105 21.3912 22.3137C21.2995 22.2169 21.2287 22.1005 21.1836 21.9722C21.1384 21.8439 21.1201 21.7069 21.1297 21.5704V18.1047C21.1297 17.8344 21.2314 17.5751 21.4125 17.384C21.5936 17.1928 21.8392 17.0854 22.0953 17.0854C22.3515 17.0854 22.5971 17.1928 22.7782 17.384C22.9593 17.5751 23.061 17.8344 23.061 18.1047V20.5511H24.7348C24.9909 20.5511 25.2366 20.6585 25.4177 20.8496C25.5988 21.0408 25.7005 21.3001 25.7005 21.5704C25.7101 21.7069 25.6917 21.8439 25.6466 21.9722C25.6015 22.1005 25.5307 22.2169 25.439 22.3137C25.3473 22.4105 25.237 22.4852 25.1155 22.5328C24.9939 22.5805 24.8641 22.5999 24.7348 22.5897Z" fill="#B1B1B1"/>
</svg>
