<svg width="14" height="15" viewBox="0 0 14 15" fill="none" xmlns="http://www.w3.org/2000/svg">
<path d="M13.1323 9.90517L11.7824 8.54776V5.20296C11.8003 3.9609 11.3683 2.75429 10.5661 1.80592C9.76379 0.857543 8.6455 0.23146 7.41765 0.0432701C6.70505 -0.0505738 5.98063 0.0086334 5.29273 0.216941C4.60483 0.425249 3.96926 0.777867 3.42843 1.25127C2.88761 1.72467 2.45396 2.30797 2.15642 2.96224C1.85889 3.61651 1.70431 4.32672 1.70299 5.04547V8.54776L0.353076 9.90517C0.183515 10.0776 0.0685303 10.2961 0.0224956 10.5335C-0.023539 10.7709 0.00141893 11.0166 0.0942493 11.2398C0.18708 11.4631 0.343664 11.6541 0.544427 11.7888C0.74519 11.9236 0.981224 11.9962 1.22302 11.9975H3.74287V12.2525C3.7779 13.0139 4.11331 13.7303 4.67561 14.2448C5.23791 14.7593 5.98123 15.0299 6.74269 14.9974C7.50415 15.0299 8.24748 14.7593 8.80977 14.2448C9.37207 13.7303 9.70748 13.0139 9.74251 12.2525V11.9975H12.2624C12.5042 11.9962 12.7402 11.9236 12.941 11.7888C13.1417 11.6541 13.2983 11.4631 13.3911 11.2398C13.484 11.0166 13.5089 10.7709 13.4629 10.5335C13.4169 10.2961 13.3019 10.0776 13.1323 9.90517ZM8.2426 12.2525C8.20101 12.6133 8.02185 12.944 7.74243 13.1759C7.46302 13.4079 7.10491 13.523 6.74269 13.4975C6.38047 13.523 6.02236 13.4079 5.74295 13.1759C5.46353 12.944 5.28437 12.6133 5.24278 12.2525V11.9975H8.2426V12.2525Z" fill="#34126C"/>
</svg>
