<svg width="41" height="41" viewBox="0 0 41 41" fill="none" xmlns="http://www.w3.org/2000/svg">
<rect width="41" height="41" fill="#C5CAEA"/>
<path d="M9 15.5208C9 14.8523 9.26559 14.2111 9.73834 13.7383C10.2111 13.2656 10.8523 13 11.5208 13H28.4792C29.1477 13 29.7889 13.2656 30.2617 13.7383C30.7344 14.2111 31 14.8523 31 15.5208V17.5833H9V15.5208Z" fill="#34126C"/>
<path d="M9 18.9585H31V26.0627C31 26.7312 30.7344 27.3724 30.2617 27.8452C29.7889 28.3179 29.1477 28.5835 28.4792 28.5835H11.5208C10.8523 28.5835 10.2111 28.3179 9.73834 27.8452C9.26559 27.3724 9 26.7312 9 26.0627V18.9585ZM24.125 23.4502C23.9062 23.4502 23.6964 23.5371 23.5416 23.6918C23.3869 23.8465 23.3 24.0564 23.3 24.2752C23.3 24.494 23.3869 24.7038 23.5416 24.8585C23.6964 25.0132 23.9062 25.1002 24.125 25.1002H26.875C27.0938 25.1002 27.3036 25.0132 27.4584 24.8585C27.6131 24.7038 27.7 24.494 27.7 24.2752C27.7 24.0564 27.6131 23.8465 27.4584 23.6918C27.3036 23.5371 27.0938 23.4502 26.875 23.4502H24.125Z" fill="#34126C"/>
</svg>
