<svg width="10" height="14" viewBox="0 0 10 14" fill="none" xmlns="http://www.w3.org/2000/svg">
<path d="M8.91563 7.40977L2.6128 12.8354C1.87007 13.4757 0.706543 12.9553 0.706543 11.9836V1.13226C0.706354 0.914774 0.769879 0.701847 0.889512 0.518974C1.00915 0.336101 1.17982 0.191034 1.38108 0.101147C1.58235 0.0112595 1.80569 -0.0196387 2.02434 0.0121526C2.243 0.0439438 2.4477 0.137077 2.61395 0.280398L8.91448 5.70605C9.03797 5.81224 9.13695 5.94319 9.20477 6.09012C9.27258 6.23704 9.30767 6.39654 9.30767 6.55791C9.30767 6.71928 9.27258 6.87878 9.20477 7.02571C9.13695 7.17264 9.03797 7.30359 8.91448 7.40977H8.91563Z" fill="#34126C"/>
</svg>
