<svg width="56" height="29" viewBox="0 0 56 29" fill="none" xmlns="http://www.w3.org/2000/svg">
<g opacity="0.29">
<path d="M55.77 29.0004L52.3642 27.1745L43.6368 22.5562C43.328 22.446 43.0602 22.2426 42.8698 21.9736C42.6794 21.7047 42.5756 21.3831 42.5725 21.0525C42.5578 20.7461 42.6302 20.4418 42.781 20.1754C42.9318 19.9091 43.1549 19.6917 43.424 19.5489C43.6789 19.3867 43.9741 19.3006 44.2754 19.3006C44.5768 19.3006 44.872 19.3867 45.1269 19.5489L51.832 23.0932C52.4706 23.4154 52.4706 23.4154 52.4706 22.771V13.6417C52.4706 13.2121 52.3642 13.2121 52.0449 13.4269L45.1269 17.0786C44.9126 17.2247 44.6663 17.3161 44.4093 17.3449C44.1523 17.3737 43.8922 17.339 43.6514 17.2439C43.4106 17.1488 43.1962 16.9961 43.0269 16.799C42.8575 16.6018 42.7381 16.366 42.679 16.112C42.5935 15.9087 42.557 15.6878 42.5725 15.4675V8.3789C42.6055 8.03212 42.562 7.68228 42.4453 7.35443C42.3286 7.02657 42.1415 6.72882 41.8974 6.48249C41.6533 6.23616 41.3582 6.04734 41.0334 5.92956C40.7085 5.81178 40.3618 5.76795 40.0182 5.80121H21.8184C21.3927 5.80121 21.2863 5.69381 21.3927 5.26419C21.6047 4.45467 21.6047 3.60343 21.3927 2.79391C21.2863 2.4717 21.2863 2.36429 21.6056 2.36429H40.4439C41.9027 2.41989 43.2834 3.04407 44.2957 4.10564C45.3079 5.1672 45.8729 6.58346 45.8719 8.05669V12.3528C45.8719 12.7824 45.9783 12.7824 46.2976 12.5676L55.3443 7.84188C55.3938 7.77518 55.4581 7.72105 55.532 7.68377C55.6059 7.64648 55.6874 7.62707 55.77 7.62707V29.0004ZM0 15.6823C0.0108953 15.9288 0.0742301 16.1699 0.185701 16.3894C0.297172 16.609 0.454167 16.8017 0.646015 16.9545C0.837864 17.1074 1.06007 17.2168 1.29753 17.2752C1.53499 17.3337 1.78215 17.3399 2.02219 17.2934C2.43624 17.191 2.79715 16.9355 3.03362 16.5776C3.27009 16.2196 3.36492 15.7852 3.29937 15.3601C3.29937 12.9973 3.4058 10.6344 3.29937 8.2715C3.28421 7.94303 3.33714 7.61499 3.4548 7.30835C3.57245 7.00171 3.75223 6.72323 3.98264 6.49072C4.21305 6.25821 4.489 6.07679 4.79287 5.95806C5.09673 5.83933 5.4218 5.78591 5.74729 5.80121H9.89811C10.111 5.80121 10.3238 5.80121 10.2174 5.479C10.0042 4.5606 10.0042 3.60491 10.2174 2.6865C10.3238 2.4717 10.2174 2.36429 10.0045 2.36429C9.79168 2.36429 6.59874 2.25689 4.89584 2.4717C3.55947 2.62824 2.32536 3.27065 1.42429 4.27878C0.523223 5.28692 0.0168986 6.59176 0 7.94928V15.6823V15.6823ZM15.7518 0.00141356C14.6792 0.00141356 13.6505 0.431411 12.892 1.19681C12.1335 1.96221 11.7074 3.00031 11.7074 4.08275C11.7344 5.1851 12.1804 6.23478 12.9531 7.01449C13.7257 7.79421 14.7659 8.24426 15.8583 8.2715C16.9319 8.21756 17.9456 7.75575 18.6958 6.97879C19.446 6.20183 19.8771 5.16724 19.9027 4.08275C19.9028 3.53762 19.7948 2.99798 19.5849 2.49568C19.3751 1.99338 19.0676 1.53859 18.6807 1.15816C18.2938 0.777737 17.8353 0.479382 17.3323 0.280708C16.8292 0.0820344 16.2918 -0.0129319 15.7518 0.00141356V0.00141356Z" fill="#34126C"/>
<path d="M32.2502 18.3656V11.5626C32.2502 11.1981 32.3627 11.1981 32.7002 11.1981H39.6754C40.0129 11.1981 40.1254 11.1981 40.1254 11.5626V13.3848C40.1254 13.7492 40.1254 13.7492 39.7879 13.7492C39.4504 13.7492 36.9754 13.8707 35.6253 13.7492C34.2753 13.6278 35.0628 13.8707 35.0628 14.3567C35.1749 14.958 35.1749 15.5775 35.0628 16.1789C35.0628 16.6648 35.1753 16.7863 35.6253 16.7863H39.6754C40.0129 16.7863 40.238 16.7863 40.1254 17.2722V18.973C40.238 19.3374 40.0129 19.4589 39.6754 19.4589H35.5128C35.1753 19.3374 35.0628 19.4589 35.0628 19.9448C35.1754 20.8316 35.1754 21.7307 35.0628 22.6174C35.0628 22.9819 35.1753 22.9819 35.5128 22.9819H39.6754C40.0129 22.9819 40.1254 23.1034 40.1254 23.4678V25.2901C40.1254 25.6545 40.0129 25.6545 39.7879 25.6545H32.5877C32.2502 25.6545 32.2502 25.533 32.2502 25.2901V18.3656ZM24.375 22.3745C23.7 18.6085 22.3499 15.207 21.4499 11.5626C21.4032 11.4459 21.3239 11.348 21.2229 11.2826C21.122 11.2172 21.0047 11.1877 20.8874 11.1981H18.5248C18.1873 11.1981 18.0748 11.1981 18.1873 11.5626L22.9124 25.2901C23.025 25.6545 23.1375 25.6545 23.475 25.6545H25.3875C25.725 25.6545 25.8375 25.6545 25.95 25.2901L30.6752 11.5626C30.7877 11.1981 30.7877 11.1981 30.4502 11.1981H28.0876C27.7501 11.0766 27.6376 11.1981 27.5251 11.684C26.7376 14.1137 26.0625 16.6648 25.275 19.2159C24.9199 20.3224 24.6563 21.4607 24.4875 22.6174L24.375 22.3745ZM4.46191 25.1686C4.46191 25.533 4.46191 25.6545 4.79942 25.6545H11.5496C11.8871 25.6545 11.8871 25.6545 11.8871 25.2901V23.5893C11.8871 23.1034 11.8871 22.9819 11.4371 22.9819C10.9871 22.9819 9.07455 22.9819 7.94951 22.9819C6.82448 22.9819 7.2745 22.8604 7.2745 22.3745C7.387 18.73 7.387 15.207 7.387 11.684C7.387 11.3196 7.2745 11.0766 6.93699 11.1981H4.91193C4.46191 11.0766 4.46191 11.3196 4.46191 11.684V25.1686ZM13.6872 25.1686C13.6872 25.533 13.7997 25.6545 14.1372 25.6545H16.2748C16.6123 25.6545 16.6123 25.533 16.6123 25.2901V11.5626C16.6123 11.1981 16.6123 11.1981 16.2748 11.1981H14.1372C13.7997 11.0766 13.6872 11.1981 13.6872 11.684C13.6872 12.17 13.6872 16.1789 13.6872 18.487V25.1686Z" fill="#34126C"/>
</g>
</svg>
