<svg width="39" height="29" viewBox="0 0 39 29" fill="none" xmlns="http://www.w3.org/2000/svg">
<path d="M39 29L36.6183 27.1742L30.5153 22.5559C30.2993 22.4457 30.112 22.2423 29.9789 21.9733C29.8457 21.7044 29.7732 21.3828 29.771 21.0522C29.7607 20.7458 29.8113 20.4415 29.9168 20.1752C30.0223 19.9088 30.1783 19.6914 30.3664 19.5486C30.5447 19.3864 30.7511 19.3004 30.9618 19.3004C31.1726 19.3004 31.379 19.3864 31.5573 19.5486L36.2462 23.0929C36.6927 23.4151 36.6927 23.4151 36.6927 22.7707V13.6415C36.6927 13.2119 36.6183 13.2119 36.395 13.4267L31.5573 17.0784C31.4074 17.2244 31.2352 17.3158 31.0555 17.3446C30.8757 17.3734 30.6938 17.3388 30.5254 17.2437C30.357 17.1486 30.2072 16.9959 30.0887 16.7987C29.9703 16.6015 29.8868 16.3658 29.8454 16.1117C29.7856 15.9085 29.7601 15.6876 29.771 15.4673V8.37878C29.794 8.03201 29.7637 7.68218 29.6821 7.35433C29.6004 7.02648 29.4696 6.72873 29.2989 6.4824C29.1282 6.23607 28.9219 6.04726 28.6947 5.92948C28.4675 5.8117 28.225 5.76787 27.9847 5.80113H15.2576C14.9599 5.80113 14.8855 5.69373 14.9599 5.26412C15.1082 4.4546 15.1082 3.60339 14.9599 2.79387C14.8855 2.47166 14.8855 2.36426 15.1088 2.36426H28.2824C29.3026 2.41985 30.2681 3.04403 30.976 4.10558C31.6839 5.16713 32.079 6.58337 32.0782 8.05658V12.3527C32.0782 12.7823 32.1527 12.7823 32.376 12.5675L38.7023 7.84177C38.737 7.77508 38.7819 7.72094 38.8336 7.68366C38.8852 7.64638 38.9422 7.62697 39 7.62697V29ZM0 15.6821C0.00761907 15.9285 0.0519092 16.1697 0.129861 16.3892C0.207813 16.6087 0.317599 16.8015 0.451759 16.9543C0.585919 17.1071 0.741307 17.2165 0.907365 17.275C1.07342 17.3335 1.24626 17.3397 1.41412 17.2932C1.70366 17.1907 1.95605 16.9353 2.12141 16.5774C2.28678 16.2194 2.35309 15.785 2.30725 15.3599C2.30725 12.9971 2.38168 10.6342 2.30725 8.27138C2.29665 7.94292 2.33367 7.61488 2.41594 7.30825C2.49822 7.00162 2.62394 6.72314 2.78506 6.49063C2.94619 6.25812 3.13916 6.0767 3.35165 5.95798C3.56414 5.83925 3.79147 5.78583 4.01908 5.80113H6.92176C7.07061 5.80113 7.21947 5.80113 7.14504 5.47892C6.99596 4.56054 6.99596 3.60486 7.14504 2.68647C7.21947 2.47166 7.14504 2.36426 6.99618 2.36426C6.84733 2.36426 4.6145 2.25686 3.42366 2.47166C2.48914 2.6282 1.62613 3.2706 0.996008 4.27873C0.36589 5.28685 0.0118172 6.59167 0 7.94917V15.6821V15.6821ZM11.0153 0.00141354C10.2652 0.00141354 9.54579 0.431405 9.0154 1.19679C8.485 1.96218 8.18702 3.00027 8.18702 4.0827C8.20589 5.18503 8.51777 6.23469 9.05809 7.0144C9.59841 7.7941 10.3258 8.24415 11.0897 8.27138C11.8405 8.21745 12.5494 7.75565 13.074 6.9787C13.5986 6.20174 13.9001 5.16717 13.9179 4.0827C13.9181 3.53758 13.8425 2.99794 13.6958 2.49564C13.549 1.99335 13.334 1.53857 13.0634 1.15815C12.7929 0.777727 12.4722 0.479376 12.1205 0.280705C11.7687 0.0820332 11.3929 -0.0129318 11.0153 0.00141354V0.00141354Z" fill="#B1B1B1"/>
<path d="M22.5525 18.365V11.5621C22.5525 11.1976 22.6312 11.1976 22.8672 11.1976H27.745C27.981 11.1976 28.0597 11.1976 28.0597 11.5621V13.3843C28.0597 13.7487 28.0597 13.7487 27.8236 13.7487C27.5876 13.7487 25.8568 13.8702 24.9127 13.7487C23.9686 13.6272 24.5193 13.8702 24.5193 14.3561C24.5977 14.9575 24.5977 15.577 24.5193 16.1783C24.5193 16.6642 24.598 16.7857 24.9127 16.7857H27.745C27.981 16.7857 28.1383 16.7857 28.0597 17.2717V18.9724C28.1383 19.3368 27.981 19.4583 27.745 19.4583H24.834C24.598 19.3368 24.5193 19.4583 24.5193 19.9442C24.5981 20.8309 24.5981 21.7301 24.5193 22.6168C24.5193 22.9812 24.598 22.9812 24.834 22.9812H27.745C27.981 22.9812 28.0597 23.1027 28.0597 23.4672V25.2894C28.0597 25.6538 27.981 25.6538 27.8236 25.6538H22.7885C22.5525 25.6538 22.5525 25.5323 22.5525 25.2894V18.365ZM17.0453 22.3738C16.5733 18.6079 15.6292 15.2065 14.9998 11.5621C14.9672 11.4454 14.9117 11.3475 14.8411 11.2821C14.7705 11.2168 14.6885 11.1872 14.6065 11.1976H12.9543C12.7183 11.1976 12.6396 11.1976 12.7183 11.5621L16.0226 25.2894C16.1013 25.6538 16.1799 25.6538 16.416 25.6538H17.7534C17.9894 25.6538 18.0681 25.6538 18.1468 25.2894L21.4511 11.5621C21.5297 11.1976 21.5297 11.1976 21.2937 11.1976H19.6416C19.4056 11.0761 19.3269 11.1976 19.2482 11.6835C18.6975 14.1132 18.2255 16.6642 17.6747 19.2153C17.4264 20.3218 17.2421 21.4601 17.124 22.6168L17.0453 22.3738ZM3.12012 25.1679C3.12012 25.5323 3.12012 25.6538 3.35614 25.6538H8.07655C8.31258 25.6538 8.31258 25.6538 8.31258 25.2894V23.5886C8.31258 23.1027 8.31257 22.9812 7.99788 22.9812C7.68319 22.9812 6.34573 22.9812 5.559 22.9812C4.77226 22.9812 5.08696 22.8598 5.08696 22.3738C5.16563 18.7294 5.16563 15.2065 5.16563 11.6835C5.16563 11.3191 5.08696 11.0761 4.85094 11.1976H3.43481C3.12012 11.0761 3.12012 11.3191 3.12012 11.6835V25.1679ZM9.57135 25.1679C9.57135 25.5323 9.65003 25.6538 9.88605 25.6538H11.3808C11.6169 25.6538 11.6169 25.5323 11.6169 25.2894V11.5621C11.6169 11.1976 11.6169 11.1976 11.3808 11.1976H9.88605C9.65003 11.0761 9.57135 11.1976 9.57135 11.6835C9.57135 12.1695 9.57135 16.1783 9.57135 18.4865V25.1679Z" fill="#B1B1B1"/>
</svg>
