<svg width="41" height="41" viewBox="0 0 41 41" fill="none" xmlns="http://www.w3.org/2000/svg">
<rect width="41" height="41" fill="#C5CAEA"/>
<path d="M20.9375 10C18.7743 10 16.6596 10.6415 14.861 11.8433C13.0623 13.0451 11.6604 14.7533 10.8326 16.7519C10.0047 18.7505 9.78814 20.9496 10.2102 23.0713C10.6322 25.193 11.6739 27.1418 13.2035 28.6715C14.7332 30.2011 16.682 31.2428 18.8037 31.6648C20.9254 32.0869 23.1245 31.8703 25.1231 31.0424C27.1217 30.2146 28.8299 28.8127 30.0317 27.014C31.2335 25.2154 31.875 23.1007 31.875 20.9375C31.875 18.0367 30.7227 15.2547 28.6715 13.2035C26.6203 11.1523 23.8383 10 20.9375 10ZM20.9375 27.9688C20.7057 27.9688 20.4792 27.9 20.2864 27.7713C20.0937 27.6425 19.9435 27.4595 19.8548 27.2453C19.7661 27.0312 19.7429 26.7956 19.7881 26.5683C19.8334 26.3409 19.945 26.1321 20.1089 25.9682C20.2728 25.8043 20.4816 25.6927 20.7089 25.6475C20.9362 25.6023 21.1718 25.6255 21.386 25.7142C21.6001 25.8029 21.7831 25.9531 21.9119 26.1458C22.0407 26.3385 22.1094 26.5651 22.1094 26.7969C22.1094 27.1077 21.9859 27.4057 21.7661 27.6255C21.5464 27.8453 21.2483 27.9688 20.9375 27.9688ZM21.8297 21.9109V23.8648H20.0719V20.1562H21.732C22.2244 20.1562 22.6967 19.9606 23.0449 19.6125C23.3931 19.2643 23.5887 18.792 23.5887 18.2996C23.5887 17.8072 23.3931 17.335 23.0449 16.9868C22.6967 16.6386 22.2244 16.443 21.732 16.443H20.5602C20.0683 16.4436 19.5967 16.6393 19.2488 16.9871C18.901 17.3349 18.7053 17.8065 18.7047 18.2984V18.7969H16.9469V18.2984C16.9481 17.3407 17.3293 16.4226 18.0067 15.7457C18.6841 15.0687 19.6025 14.6881 20.5602 14.6875H21.732C22.6802 14.6897 23.5896 15.0646 24.2638 15.7313C24.9381 16.398 25.3231 17.303 25.3359 18.2512C25.3488 19.1993 24.9883 20.1144 24.3323 20.7991C23.6764 21.4838 22.7775 21.8831 21.8297 21.9109Z" fill="#34126C"/>
</svg>
