<svg width="41" height="41" viewBox="0 0 41 41" fill="none" xmlns="http://www.w3.org/2000/svg">
<rect width="41" height="41" fill="#C5CAEA"/>
<path d="M27.75 13.6H25.5C25.5 11.0585 23.4863 9 21 9C18.5138 9 16.5 11.0585 16.5 13.6H14.25C13.0125 13.6 12 14.635 12 15.9V29.7C12 30.965 13.0125 32 14.25 32H27.75C28.9875 32 30 30.965 30 29.7V15.9C30 14.635 28.9875 13.6 27.75 13.6ZM18.75 18.2C18.75 18.8325 18.2438 19.35 17.625 19.35C17.0063 19.35 16.5 18.8325 16.5 18.2V15.9H18.75V18.2ZM21 11.3C22.2375 11.3 23.25 12.335 23.25 13.6H18.75C18.75 12.335 19.7625 11.3 21 11.3ZM25.5 18.2C25.5 18.8325 24.9938 19.35 24.375 19.35C23.7563 19.35 23.25 18.8325 23.25 18.2V15.9H25.5V18.2Z" fill="#34126C"/>
</svg>
