<svg width="41" height="41" viewBox="0 0 41 41" fill="none" xmlns="http://www.w3.org/2000/svg">
<rect width="41" height="41" fill="#C5CAEA"/>
<path d="M16.1504 20.4997C19.3541 20.4997 21.9506 17.9258 21.9506 14.7499C21.9506 11.574 19.3541 9 16.1504 9C12.9467 9 10.3502 11.574 10.3502 14.7499C10.3502 17.9258 12.9467 20.4997 16.1504 20.4997ZM20.2106 21.9372H19.4538C18.4478 22.3954 17.3286 22.6559 16.1504 22.6559C14.9722 22.6559 13.8575 22.3954 12.847 21.9372H12.0902C8.72792 21.9372 6 24.6414 6 27.9746V29.8433C6 31.0337 6.97426 31.9995 8.17509 31.9995H20.632C20.5232 31.694 20.4779 31.3706 20.5142 31.0426L20.8223 28.307L20.8767 27.8083L21.2347 27.4535L24.7375 23.9811C23.6273 22.7368 22.0186 21.9372 20.2106 21.9372ZM22.2633 28.4642L21.9552 31.2044C21.9053 31.6625 22.295 32.0489 22.7527 31.995L25.5123 31.6895L31.7612 25.4949L28.5121 22.2741L22.2633 28.4642ZM34.6839 21.0792L32.9665 19.3767C32.5451 18.9589 31.8563 18.9589 31.4349 19.3767L29.722 21.0747L29.5362 21.2589L32.7898 24.4797L34.6839 22.602C35.1054 22.1798 35.1054 21.5015 34.6839 21.0792Z" fill="#34126C"/>
</svg>
