<svg width="29" height="29" viewBox="0 0 29 29" fill="none" xmlns="http://www.w3.org/2000/svg">
<path d="M14.5052 2.63709e-05C12.1869 -0.00440148 9.90145 0.54883 7.84106 1.61319C5.78068 2.67754 4.00563 4.2219 2.66523 6.11635C1.32482 8.01079 0.45826 10.1999 0.138434 12.4996C-0.181392 14.7993 0.0548693 17.1423 0.827346 19.3315C1.59982 21.5207 2.88592 23.4921 4.57747 25.0799C6.26901 26.6676 8.31653 27.8253 10.5478 28.4556C12.7791 29.0859 15.1288 29.1702 17.3994 28.7016C19.67 28.233 21.7951 27.2252 23.5958 25.7628C24.1674 25.3055 24.7074 24.8097 25.2119 24.2791C27.1064 22.2018 28.3566 19.6173 28.8101 16.8407C29.2636 14.0642 28.9007 11.2154 27.7658 8.64179C26.6309 6.06816 24.7729 3.88081 22.4183 2.34637C20.0638 0.811929 17.3143 -0.00331132 14.5052 2.63709e-05ZM14.5052 5.46282C17.4007 5.46282 19.6902 8.09305 19.6902 11.2628C19.6902 14.4326 17.4007 17.0628 14.5052 17.0628C11.6097 17.0628 9.32021 14.5 9.32021 11.2628C9.32021 8.02561 11.6097 5.46282 14.5052 5.46282ZM23.7978 22.9303C23.3607 23.4146 22.888 23.8654 22.3837 24.2791C20.149 26.0742 17.3699 27.0525 14.5052 27.0525C11.6405 27.0525 8.86143 26.0742 6.6267 24.2791C5.65618 23.474 4.79582 22.5443 4.06787 21.514C4.80859 19.3558 6.89606 17.6024 9.79158 16.6582C10.9452 17.8984 12.5425 18.6302 14.2337 18.6934C15.9249 18.7566 17.5721 18.146 18.8148 16.9954L19.2189 16.6582C22.1144 17.6024 24.2018 19.3558 24.9426 21.514C24.5945 22.0123 24.212 22.4855 23.7978 22.9303Z" fill="#B1B1B1"/>
</svg>
